<svg width="25" height="25" viewBox="0 0 25 25" fill="none"
    xmlns="http://www.w3.org/2000/svg">
    <path d="M14.3488 19.7128C14.1938 19.7133 14.0407 19.6791 13.9006 19.6127C13.7606 19.5462 13.6372 19.4493 13.5396 19.3289L8.52838 13.1038C8.37578 12.9182 8.29236 12.6853 8.29236 12.445C8.29236 12.2047 8.37578 11.9718 8.52838 11.7862L13.7159 5.56108C13.8921 5.34921 14.1451 5.21596 14.4195 5.19067C14.6938 5.16538 14.967 5.2501 15.1788 5.42621C15.3907 5.60231 15.524 5.85537 15.5493 6.12972C15.5745 6.40407 15.4898 6.67722 15.3137 6.8891L10.676 12.4502L15.1581 18.0112C15.285 18.1635 15.3656 18.349 15.3903 18.5456C15.4151 18.7423 15.383 18.9419 15.2979 19.1209C15.2128 19.2999 15.0781 19.4508 14.9099 19.5557C14.7417 19.6606 14.547 19.7151 14.3488 19.7128Z" fill="#C0C0C0"/>
</svg>
