<svg xmlns="http://www.w3.org/2000/svg" width="20" height="20" viewBox="0 0 20 20" fill="none">
    <path d="M4.4107 4.41058C4.73614 4.08514 5.26378 4.08514 5.58922 4.41058L9.99996 8.82133L14.4107 4.41058C14.7361 4.08514 15.2638 4.08514 15.5892 4.41058C15.9147 4.73602 15.9147 5.26366 15.5892 5.58909L11.1785 9.99984L15.5892 14.4106C15.9147 14.736 15.9147 15.2637 15.5892 15.5891C15.2638 15.9145 14.7361 15.9145 14.4107 15.5891L9.99996 11.1783L5.58922 15.5891C5.26378 15.9145 4.73614 15.9145 4.4107 15.5891C4.08527 15.2637 4.08527 14.736 4.4107 14.4106L8.82145 9.99984L4.4107 5.58909C4.08527 5.26366 4.08527 4.73602 4.4107 4.41058Z" fill="black"/>
</svg>