<svg width="28" height="29" viewBox="0 0 28 29" fill="none" xmlns="http://www.w3.org/2000/svg">
<path d="M11.4947 22.9352C11.2312 22.9358 10.9758 22.8412 10.773 22.6678C10.6588 22.5702 10.5644 22.4504 10.4952 22.3151C10.426 22.1798 10.3834 22.0318 10.3697 21.8795C10.3561 21.7272 10.3718 21.5737 10.4158 21.4276C10.4598 21.2816 10.5314 21.146 10.6263 21.0285L15.6786 14.7965L10.8068 8.55298C10.7131 8.43405 10.6432 8.29721 10.6009 8.15032C10.5587 8.00342 10.5451 7.84938 10.5608 7.69704C10.5765 7.54469 10.6213 7.39706 10.6925 7.26261C10.7638 7.12816 10.8601 7.00955 10.9759 6.91361C11.0926 6.80776 11.2293 6.72792 11.3773 6.6791C11.5253 6.63028 11.6815 6.61354 11.8361 6.62991C11.9908 6.64629 12.1404 6.69544 12.2757 6.77427C12.411 6.8531 12.5291 6.95991 12.6224 7.08801L18.0694 14.064C18.2352 14.2721 18.3259 14.533 18.3259 14.8023C18.3259 15.0717 18.2352 15.3326 18.0694 15.5406L12.4307 22.5167C12.3176 22.6574 12.1739 22.7686 12.0112 22.8413C11.8486 22.9141 11.6716 22.9462 11.4947 22.9352Z" fill="#4E5261"/>
</svg>
