<svg width="60" height="61" viewBox="0 0 60 61" fill="none"
    xmlns="http://www.w3.org/2000/svg">
    <path d="M30 10.1425C29.337 10.1425 28.7011 10.4096 28.2322 10.8851C27.7634 11.3606 27.5 12.0056 27.5 12.6781V50.7125C27.5 51.3849 27.7634 52.0299 28.2322 52.5054C28.7011 52.9809 29.337 53.2481 30 53.2481C30.663 53.2481 31.2989 52.9809 31.7678 52.5054C32.2366 52.0299 32.5 51.3849 32.5 50.7125V12.6781C32.5 12.0056 32.2366 11.3606 31.7678 10.8851C31.2989 10.4096 30.663 10.1425 30 10.1425V10.1425Z" fill="#C0C0C0"/>
    <path d="M47.5 30.4275C46.837 30.4275 46.2011 30.6946 45.7322 31.1702C45.2634 31.6457 45 32.2906 45 32.9631V50.7125C45 51.385 45.2634 52.0299 45.7322 52.5054C46.2011 52.981 46.837 53.2481 47.5 53.2481C48.163 53.2481 48.7989 52.981 49.2678 52.5054C49.7366 52.0299 50 51.385 50 50.7125V32.9631C50 32.2906 49.7366 31.6457 49.2678 31.1702C48.7989 30.6946 48.163 30.4275 47.5 30.4275Z" fill="#C0C0C0"/>
    <path d="M12.5 20.285C11.837 20.285 11.2011 20.5522 10.7322 21.0277C10.2634 21.5032 10 22.1482 10 22.8207V50.7125C10 51.385 10.2634 52.03 10.7322 52.5055C11.2011 52.981 11.837 53.2482 12.5 53.2482C13.163 53.2482 13.7989 52.981 14.2678 52.5055C14.7366 52.03 15 51.385 15 50.7125V22.8207C15 22.1482 14.7366 21.5032 14.2678 21.0277C13.7989 20.5522 13.163 20.285 12.5 20.285Z" fill="#C0C0C0"/>
</svg>
