<svg width="36" height="36" viewBox="0 0 36 36" fill="none" xmlns="http://www.w3.org/2000/svg">
<path d="M18 16.5C19.1867 16.5 20.3467 16.1481 21.3334 15.4888C22.3201 14.8295 23.0892 13.8925 23.5433 12.7961C23.9974 11.6997 24.1162 10.4933 23.8847 9.32946C23.6532 8.16557 23.0818 7.09648 22.2426 6.25736C21.4035 5.41825 20.3344 4.8468 19.1705 4.61529C18.0067 4.38378 16.8003 4.5026 15.7039 4.95673C14.6075 5.41085 13.6705 6.17989 13.0112 7.16658C12.3519 8.15328 12 9.31332 12 10.5C12 12.0913 12.6321 13.6174 13.7574 14.7426C14.8826 15.8679 16.4087 16.5 18 16.5Z" fill="#C0C0C0"/>
<path d="M27 31.5C27.3978 31.5 27.7794 31.342 28.0607 31.0607C28.342 30.7794 28.5 30.3978 28.5 30C28.5 27.2152 27.3938 24.5445 25.4246 22.5754C23.4555 20.6062 20.7848 19.5 18 19.5C15.2152 19.5 12.5445 20.6062 10.5754 22.5754C8.60625 24.5445 7.5 27.2152 7.5 30C7.5 30.3978 7.65804 30.7794 7.93934 31.0607C8.22064 31.342 8.60218 31.5 9 31.5H27Z" fill="#C0C0C0"/>
</svg>
