<svg width="36" height="36" viewBox="0 0 36 36" fill="none" xmlns="http://www.w3.org/2000/svg">
<path d="M15 21H21V31.5H15V21Z" fill="#C0C0C0"/>
<path d="M30.63 15.27L19.065 3.45005C18.9255 3.30945 18.7596 3.19786 18.5769 3.12171C18.3941 3.04556 18.198 3.00635 18 3.00635C17.802 3.00635 17.6059 3.04556 17.4231 3.12171C17.2403 3.19786 17.0744 3.30945 16.935 3.45005L5.36999 15.285C5.09015 15.5671 4.86913 15.902 4.71978 16.2703C4.57043 16.6385 4.49572 17.0327 4.49999 17.43V30C4.49883 30.7679 4.79215 31.507 5.31955 32.0651C5.84695 32.6232 6.56828 32.9578 7.33499 33H12V19.5C12 19.1022 12.158 18.7207 12.4393 18.4394C12.7206 18.1581 13.1022 18 13.5 18H22.5C22.8978 18 23.2793 18.1581 23.5606 18.4394C23.842 18.7207 24 19.1022 24 19.5V33H28.665C29.4317 32.9578 30.153 32.6232 30.6804 32.0651C31.2078 31.507 31.5012 30.7679 31.5 30V17.43C31.5012 16.6244 31.1892 15.8499 30.63 15.27Z" fill="#C0C0C0"/>
</svg>
