<svg width="29" height="30" viewBox="0 0 29 30" fill="none" xmlns="http://www.w3.org/2000/svg">
<path d="M24.3676 19.0125L22.2301 16.75V11.175C22.2585 9.10477 21.5744 7.09363 20.3041 5.51291C19.0338 3.93219 17.263 2.88866 15.3188 2.57499C14.1905 2.41857 13.0434 2.51726 11.9542 2.86446C10.8649 3.21166 9.85853 3.79939 9.00217 4.58844C8.14581 5.37749 7.45916 6.34971 6.98803 7.44023C6.5169 8.53076 6.27213 9.7145 6.27006 10.9125V16.75L4.13256 19.0125C3.86407 19.2998 3.682 19.6641 3.60911 20.0597C3.53621 20.4554 3.57573 20.8649 3.72272 21.237C3.86971 21.6092 4.11765 21.9275 4.43555 22.1521C4.75344 22.3767 5.12719 22.4977 5.51006 22.5H9.50006V22.925C9.55552 24.194 10.0866 25.3881 10.977 26.2457C11.8673 27.1032 13.0443 27.5543 14.2501 27.5C15.4558 27.5543 16.6328 27.1032 17.5231 26.2457C18.4135 25.3881 18.9446 24.194 19.0001 22.925V22.5H22.9901C23.3729 22.4977 23.7467 22.3767 24.0646 22.1521C24.3825 21.9275 24.6304 21.6092 24.7774 21.237C24.9244 20.8649 24.9639 20.4554 24.891 20.0597C24.8181 19.6641 24.636 19.2998 24.3676 19.0125ZM16.6251 22.925C16.5592 23.5262 16.2755 24.0776 15.8331 24.4641C15.3906 24.8507 14.8236 25.0426 14.2501 25C13.6765 25.0426 13.1095 24.8507 12.667 24.4641C12.2246 24.0776 11.9409 23.5262 11.8751 22.925V22.5H16.6251V22.925ZM6.54318 20L7.94443 18.525C8.16669 18.2924 8.34303 18.0158 8.46328 17.7112C8.58352 17.4066 8.6453 17.0799 8.64506 16.75V10.9125C8.6457 10.0692 8.8177 9.23589 9.1495 8.46838C9.4813 7.70086 9.96523 7.01693 10.5688 6.46249C11.1642 5.89459 11.8698 5.46968 12.6366 5.21715C13.4035 4.96463 14.2133 4.89053 15.0101 4.99999C16.3834 5.23471 17.6299 5.98375 18.5202 7.10921C19.4104 8.23468 19.8845 9.66079 19.8551 11.125V16.75C19.8532 17.079 19.9132 17.4052 20.0314 17.7098C20.1495 18.0144 20.3237 18.2914 20.5438 18.525L21.9569 20H6.54318Z" fill="#231F20"/>
</svg>
