<svg width="36" height="36" viewBox="0 0 36 36" fill="none" xmlns="http://www.w3.org/2000/svg">
<path d="M31.5 10.5C31.5142 10.3955 31.5142 10.2895 31.5 10.185C31.487 10.0969 31.4617 10.0111 31.425 9.93C31.3854 9.85669 31.3403 9.78649 31.29 9.72C31.2329 9.62513 31.1622 9.5392 31.08 9.465L30.9 9.36C30.8134 9.29543 30.7173 9.24482 30.615 9.21H30.315C30.2236 9.12149 30.1169 9.05034 30 9H22.5C22.1022 9 21.7207 9.15804 21.4394 9.43934C21.1581 9.72064 21 10.1022 21 10.5C21 10.8978 21.1581 11.2794 21.4394 11.5607C21.7207 11.842 22.1022 12 22.5 12H26.745L20.745 19.065L14.265 15.21C13.9581 15.0275 13.5961 14.9604 13.2442 15.0209C12.8922 15.0814 12.5734 15.2654 12.345 15.54L4.84502 24.54C4.71871 24.6916 4.62355 24.8666 4.56499 25.055C4.50642 25.2434 4.4856 25.4415 4.50371 25.638C4.52182 25.8344 4.57852 26.0254 4.67055 26.1999C4.76257 26.3744 4.88813 26.5291 5.04002 26.655C5.30988 26.8786 5.64954 27.0007 6.00002 27C6.22038 27.0004 6.43812 26.9522 6.63775 26.8588C6.83737 26.7655 7.01398 26.6293 7.15502 26.46L13.83 18.45L20.235 22.29C20.5388 22.4702 20.8965 22.5374 21.2449 22.4798C21.5934 22.4221 21.9104 22.2434 22.14 21.975L28.5 14.55V18C28.5 18.3978 28.6581 18.7794 28.9394 19.0607C29.2207 19.342 29.6022 19.5 30 19.5C30.3978 19.5 30.7794 19.342 31.0607 19.0607C31.342 18.7794 31.5 18.3978 31.5 18V10.5Z" fill="#C0C0C0"/>
</svg>
