<svg width="25" height="25" viewBox="0 0 25 25" fill="none"
    xmlns="http://www.w3.org/2000/svg">
    <path d="M10.3751 19.7127C10.1327 19.7132 9.89775 19.6288 9.71108 19.4741C9.60603 19.387 9.51919 19.2801 9.45553 19.1593C9.39188 19.0386 9.35267 18.9065 9.34014 18.7707C9.32761 18.6348 9.34201 18.4977 9.38252 18.3674C9.42303 18.2371 9.48885 18.1161 9.57621 18.0112L14.2243 12.4502L9.74221 6.87871C9.65603 6.77258 9.59167 6.65047 9.55283 6.51939C9.514 6.38831 9.50145 6.25085 9.51591 6.11491C9.53038 5.97896 9.57156 5.84722 9.6371 5.72724C9.70265 5.60727 9.79126 5.50143 9.89784 5.41581C10.0052 5.32136 10.1309 5.25012 10.2671 5.20655C10.4033 5.16299 10.547 5.14805 10.6892 5.16266C10.8315 5.17727 10.9691 5.22113 11.0936 5.29147C11.2181 5.36182 11.3267 5.45714 11.4126 5.57144L16.4238 11.7965C16.5764 11.9822 16.6598 12.215 16.6598 12.4553C16.6598 12.6957 16.5764 12.9285 16.4238 13.1142L11.2362 19.3392C11.1321 19.4648 10.9999 19.5641 10.8503 19.6289C10.7007 19.6938 10.5379 19.7226 10.3751 19.7127Z" fill="#C0C0C0"/>
</svg>
