<svg width="36" height="36" viewBox="0 0 36 36" fill="none" xmlns="http://www.w3.org/2000/svg">
<path d="M31.065 28.935L25.965 23.85C27.6105 21.7537 28.5033 19.165 28.5 16.5C28.5 14.1266 27.7962 11.8066 26.4776 9.83316C25.1591 7.85977 23.2849 6.3217 21.0922 5.41345C18.8995 4.5052 16.4867 4.26756 14.1589 4.73058C11.8312 5.1936 9.69295 6.33649 8.01472 8.01472C6.33649 9.69295 5.1936 11.8312 4.73058 14.1589C4.26756 16.4867 4.5052 18.8995 5.41345 21.0922C6.3217 23.2849 7.85977 25.1591 9.83316 26.4776C11.8066 27.7962 14.1266 28.5 16.5 28.5C19.165 28.5033 21.7537 27.6105 23.85 25.965L28.935 31.065C29.0745 31.2056 29.2404 31.3172 29.4231 31.3933C29.6059 31.4695 29.802 31.5087 30 31.5087C30.198 31.5087 30.3941 31.4695 30.5769 31.3933C30.7597 31.3172 30.9256 31.2056 31.065 31.065C31.2056 30.9256 31.3172 30.7597 31.3933 30.5769C31.4695 30.3941 31.5087 30.198 31.5087 30C31.5087 29.802 31.4695 29.6059 31.3933 29.4231C31.3172 29.2404 31.2056 29.0745 31.065 28.935V28.935ZM7.50001 16.5C7.50001 14.72 8.02785 12.9799 9.01678 11.4999C10.0057 10.0198 11.4113 8.86628 13.0559 8.18509C14.7004 7.5039 16.51 7.32567 18.2558 7.67294C20.0016 8.02021 21.6053 8.87737 22.864 10.136C24.1226 11.3947 24.9798 12.9984 25.3271 14.7442C25.6743 16.49 25.4961 18.2996 24.8149 19.9442C24.1337 21.5887 22.9802 22.9943 21.5001 23.9832C20.0201 24.9722 18.28 25.5 16.5 25.5C14.1131 25.5 11.8239 24.5518 10.136 22.864C8.44822 21.1761 7.50001 18.887 7.50001 16.5Z" fill="#C0C0C0"/>
</svg>
