<svg width="65" height="23" viewBox="0 0 65 23" fill="none"
    xmlns="http://www.w3.org/2000/svg">
    <path d="M0.453835 18V1.27273H11.5291V4.18856H3.99041V8.17436H10.794V11.0902H3.99041V18H0.453835Z" fill="#698AFA"/>
    <path d="M13.8426 18V5.45455H17.322V18H13.8426ZM15.5905 3.83736C15.0732 3.83736 14.6294 3.66584 14.2591 3.3228C13.8943 2.97431 13.7119 2.55776 13.7119 2.07315C13.7119 1.59399 13.8943 1.18288 14.2591 0.839844C14.6294 0.491358 15.0732 0.317116 15.5905 0.317116C16.1077 0.317116 16.5488 0.491358 16.9136 0.839844C17.2839 1.18288 17.469 1.59399 17.469 2.07315C17.469 2.55776 17.2839 2.97431 16.9136 3.3228C16.5488 3.66584 16.1077 3.83736 15.5905 3.83736ZM26.7821 5.45455V8.06818H19.2271V5.45455H26.7821ZM20.9423 2.44886H24.4217V14.1449C24.4217 14.4661 24.4707 14.7166 24.5687 14.8963C24.6667 15.0705 24.8029 15.1931 24.9771 15.2638C25.1568 15.3346 25.3637 15.37 25.5978 15.37C25.7612 15.37 25.9245 15.3564 26.0879 15.3292C26.2512 15.2965 26.3765 15.272 26.4636 15.2557L27.0108 17.8448C26.8366 17.8993 26.5916 17.9619 26.2757 18.0327C25.9599 18.1089 25.5761 18.1552 25.1241 18.1715C24.2856 18.2042 23.5505 18.0926 22.9189 17.8366C22.2927 17.5807 21.8053 17.1832 21.4569 16.6442C21.1084 16.1051 20.9368 15.4245 20.9423 14.6023V2.44886ZM34.5822 18.245C33.3135 18.245 32.2163 17.9755 31.2907 17.4364C30.3704 16.8919 29.6599 16.1351 29.1589 15.1658C28.658 14.1912 28.4075 13.0613 28.4075 11.7763C28.4075 10.4804 28.658 9.34777 29.1589 8.37855C29.6599 7.40388 30.3704 6.64702 31.2907 6.10795C32.2163 5.56345 33.3135 5.29119 34.5822 5.29119C35.8509 5.29119 36.9454 5.56345 37.8656 6.10795C38.7913 6.64702 39.5046 7.40388 40.0055 8.37855C40.5065 9.34777 40.7569 10.4804 40.7569 11.7763C40.7569 13.0613 40.5065 14.1912 40.0055 15.1658C39.5046 16.1351 38.7913 16.8919 37.8656 17.4364C36.9454 17.9755 35.8509 18.245 34.5822 18.245ZM34.5985 15.5497C35.1757 15.5497 35.6576 15.3864 36.0442 15.0597C36.4308 14.7275 36.7221 14.2756 36.9181 13.7038C37.1196 13.1321 37.2203 12.4814 37.2203 11.7518C37.2203 11.0221 37.1196 10.3714 36.9181 9.79972C36.7221 9.22798 36.4308 8.77604 36.0442 8.44389C35.6576 8.11174 35.1757 7.94567 34.5985 7.94567C34.0159 7.94567 33.5259 8.11174 33.1284 8.44389C32.7363 8.77604 32.4396 9.22798 32.2381 9.79972C32.0421 10.3714 31.9441 11.0221 31.9441 11.7518C31.9441 12.4814 32.0421 13.1321 32.2381 13.7038C32.4396 14.2756 32.7363 14.7275 33.1284 15.0597C33.5259 15.3864 34.0159 15.5497 34.5985 15.5497ZM43.0194 18V5.45455H46.3926V7.64347H46.5233C46.752 6.86482 47.1358 6.27675 47.6749 5.87926C48.214 5.47633 48.8347 5.27486 49.5371 5.27486C49.7114 5.27486 49.8992 5.28575 50.1007 5.30753C50.3021 5.32931 50.4791 5.35926 50.6316 5.39737V8.48473C50.4682 8.43572 50.2422 8.39216 49.9537 8.35405C49.6651 8.31593 49.401 8.29688 49.1614 8.29688C48.6496 8.29688 48.1922 8.4085 47.7892 8.63175C47.3917 8.84955 47.0759 9.15447 46.8418 9.54652C46.6131 9.93857 46.4988 10.3905 46.4988 10.9023V18H43.0194ZM54.9604 22.7045C54.5194 22.7045 54.1055 22.6692 53.7189 22.5984C53.3378 22.533 53.022 22.4486 52.7715 22.3452L53.5556 19.7479C53.964 19.8731 54.3315 19.9412 54.6582 19.9521C54.9904 19.9629 55.2762 19.8867 55.5158 19.7234C55.7608 19.56 55.9596 19.2823 56.112 18.8903L56.3162 18.3594L51.8159 5.45455H55.475L58.0723 14.6676H58.2029L60.8248 5.45455H64.5083L59.6323 19.3558C59.3981 20.031 59.0796 20.6191 58.6767 21.12C58.2792 21.6264 57.7755 22.0157 57.1657 22.288C56.5558 22.5657 55.8207 22.7045 54.9604 22.7045Z" fill="black"/>
</svg>
