<svg width="31" height="31" viewBox="0 0 31 31" fill="none"
    xmlns="http://www.w3.org/2000/svg">
    <path d="M6.31256 16.4126H21.2859L16.703 21.9171C16.5969 22.0448 16.5169 22.1921 16.4678 22.3506C16.4186 22.5092 16.4011 22.6759 16.4164 22.8412C16.4471 23.175 16.6093 23.483 16.8671 23.6972C17.1249 23.9115 17.4573 24.0146 17.7912 23.9839C18.125 23.9531 18.4329 23.7909 18.6472 23.5331L24.9598 15.9581C25.0022 15.8978 25.0402 15.8345 25.0734 15.7687C25.0734 15.7056 25.1365 15.6677 25.1618 15.6046C25.219 15.4598 25.249 15.3057 25.2502 15.1501C25.249 14.9944 25.219 14.8403 25.1618 14.6956C25.1618 14.6325 25.0986 14.5946 25.0734 14.5314C25.0402 14.4656 25.0022 14.4023 24.9598 14.3421L18.6472 6.76704C18.5285 6.62452 18.3799 6.50991 18.2119 6.43136C18.0439 6.3528 17.8606 6.31223 17.6751 6.31253C17.3801 6.31196 17.0942 6.41469 16.8671 6.60291C16.7393 6.7089 16.6336 6.83906 16.5561 6.98595C16.4787 7.13284 16.431 7.29357 16.4157 7.45892C16.4005 7.62428 16.418 7.79103 16.4673 7.9496C16.5166 8.10818 16.5967 8.25547 16.703 8.38304L21.2859 13.8876H6.31256C5.97772 13.8876 5.65659 14.0206 5.41983 14.2574C5.18306 14.4941 5.05005 14.8152 5.05005 15.1501C5.05005 15.4849 5.18306 15.806 5.41983 16.0428C5.65659 16.2796 5.97772 16.4126 6.31256 16.4126Z" fill="white"/>
</svg>
