<svg width="18" height="18" viewBox="0 0 18 18" fill="none" xmlns="http://www.w3.org/2000/svg">
<path d="M9.00009 0.666672C7.35191 0.666672 5.74074 1.15541 4.37033 2.07109C2.99992 2.98677 1.93182 4.28826 1.30109 5.81098C0.670359 7.33369 0.505331 9.00925 0.826874 10.6258C1.14842 12.2423 1.94209 13.7271 3.10753 14.8926C4.27297 16.058 5.75782 16.8517 7.37433 17.1732C8.99084 17.4948 10.6664 17.3297 12.1891 16.699C13.7118 16.0683 15.0133 15.0002 15.929 13.6298C16.8447 12.2593 17.3334 10.6482 17.3334 9.00001C17.3334 7.90566 17.1179 6.82202 16.6991 5.81098C16.2803 4.79993 15.6665 3.88127 14.8926 3.10745C14.1188 2.33363 13.2002 1.7198 12.1891 1.30101C11.1781 0.88222 10.0944 0.666672 9.00009 0.666672V0.666672ZM9.00009 15.6667C7.68154 15.6667 6.39261 15.2757 5.29628 14.5431C4.19996 13.8106 3.34547 12.7694 2.84089 11.5512C2.3363 10.3331 2.20428 8.99261 2.46152 7.6994C2.71875 6.4062 3.35369 5.21831 4.28604 4.28596C5.21839 3.35361 6.40628 2.71867 7.69948 2.46144C8.99269 2.2042 10.3331 2.33622 11.5513 2.84081C12.7695 3.34539 13.8107 4.19988 14.5432 5.2962C15.2758 6.39253 15.6668 7.68146 15.6668 9.00001C15.6668 10.7681 14.9644 12.4638 13.7141 13.7141C12.4639 14.9643 10.7682 15.6667 9.00009 15.6667V15.6667Z" fill="#698AFA"/>
<path d="M11.25 5.99167L8.09999 10.1583L6.74166 8.4C6.60574 8.2254 6.40602 8.11194 6.18645 8.0846C5.96687 8.05725 5.74543 8.11824 5.57083 8.25417C5.39623 8.39009 5.28277 8.58981 5.25542 8.80938C5.22807 9.02895 5.28907 9.2504 5.42499 9.425L7.45 12.0167C7.52847 12.116 7.62854 12.1961 7.74261 12.251C7.85668 12.3059 7.98175 12.334 8.10833 12.3333C8.23559 12.333 8.3611 12.3036 8.47521 12.2472C8.58933 12.1909 8.68903 12.1092 8.76666 12.0083L12.575 7.00833C12.7098 6.83152 12.7689 6.6084 12.7392 6.38804C12.7095 6.16769 12.5935 5.96815 12.4167 5.83333C12.2399 5.69851 12.0167 5.63946 11.7964 5.66915C11.576 5.69884 11.3765 5.81486 11.2417 5.99167H11.25Z" fill="#698AFA"/>
</svg>
