<svg width="18" height="18" viewBox="0 0 18 18" fill="none" xmlns="http://www.w3.org/2000/svg">
<path d="M8.99996 0.666672C7.35179 0.666672 5.74062 1.15541 4.37021 2.07109C2.9998 2.98677 1.9317 4.28826 1.30097 5.81098C0.670237 7.33369 0.505209 9.00925 0.826752 10.6258C1.1483 12.2423 1.94197 13.7271 3.10741 14.8926C4.27284 16.058 5.7577 16.8517 7.37421 17.1732C8.99072 17.4948 10.6663 17.3297 12.189 16.699C13.7117 16.0683 15.0132 15.0002 15.9289 13.6298C16.8446 12.2593 17.3333 10.6482 17.3333 9.00001C17.3333 7.90566 17.1177 6.82202 16.699 5.81098C16.2802 4.79993 15.6663 3.88127 14.8925 3.10745C14.1187 2.33363 13.2 1.7198 12.189 1.30101C11.1779 0.88222 10.0943 0.666672 8.99996 0.666672V0.666672ZM12.5833 7.00834L8.77496 12.0083C8.69733 12.1092 8.59763 12.1909 8.48352 12.2472C8.3694 12.3036 8.24389 12.333 8.11663 12.3333C7.99005 12.334 7.86498 12.3059 7.75091 12.251C7.63684 12.1961 7.53677 12.116 7.4583 12.0167L5.42496 9.42501C5.35766 9.33855 5.30805 9.23969 5.27895 9.13406C5.24986 9.02843 5.24185 8.91811 5.25539 8.80939C5.26893 8.70066 5.30376 8.59567 5.35787 8.50041C5.41199 8.40515 5.48434 8.32147 5.5708 8.25417C5.7454 8.11825 5.96684 8.05725 6.18642 8.0846C6.29514 8.09814 6.40013 8.13297 6.49539 8.18708C6.59066 8.2412 6.67433 8.31355 6.74163 8.40001L8.09996 10.1333L11.25 5.96667C11.3167 5.87912 11.4001 5.80558 11.4952 5.75024C11.5904 5.69491 11.6956 5.65886 11.8047 5.64415C11.9138 5.62945 12.0247 5.63638 12.1311 5.66455C12.2376 5.69273 12.3374 5.74158 12.425 5.80834C12.5125 5.87509 12.5861 5.95844 12.6414 6.05362C12.6967 6.14879 12.7328 6.25394 12.7475 6.36305C12.7622 6.47216 12.7553 6.58309 12.7271 6.68952C12.6989 6.79595 12.6501 6.89579 12.5833 6.98334V7.00834Z" fill="#698AFA"/>
</svg>
