<svg width="10" height="14" viewBox="0 0 10 14" fill="none" xmlns="http://www.w3.org/2000/svg">
<path d="M2.07648 13.0608C1.74394 13.0588 1.41557 12.9866 1.11286 12.849C0.785461 12.7047 0.506525 12.4692 0.309361 12.1706C0.112198 11.8721 0.0051414 11.5231 0.000976562 11.1653V2.24908C0.0051414 1.89132 0.112198 1.54231 0.309361 1.24375C0.506525 0.945189 0.785461 0.70969 1.11286 0.565379C1.48956 0.387444 1.90868 0.318911 2.32244 0.367589C2.7362 0.416267 3.12797 0.580198 3.45309 0.840701L8.85365 5.2988C9.06543 5.4674 9.23646 5.68159 9.35401 5.92543C9.47156 6.16927 9.53261 6.43649 9.53261 6.70718C9.53261 6.97788 9.47156 7.24509 9.35401 7.48893C9.23646 7.73277 9.06543 7.94696 8.85365 8.11556L3.45309 12.5737C3.06381 12.8894 2.57769 13.0614 2.07648 13.0608Z" fill="#102361"/>
</svg>
