<svg width="85" height="85" viewBox="0 0 85 85" fill="none" xmlns="http://www.w3.org/2000/svg">
<circle cx="42.5" cy="42.5" r="42.5" fill="#698AFA"/>
<path d="M42.5 39.9583C44.5108 39.9583 46.4764 39.3621 48.1483 38.2449C49.8202 37.1278 51.1233 35.54 51.8928 33.6823C52.6622 31.8246 52.8636 29.7804 52.4713 27.8083C52.079 25.8361 51.1107 24.0246 49.6889 22.6028C48.2671 21.1809 46.4555 20.2126 44.4834 19.8204C42.5113 19.4281 40.4671 19.6294 38.6094 20.3989C36.7516 21.1684 35.1638 22.4715 34.0467 24.1434C32.9296 25.8153 32.3333 27.7809 32.3333 29.7917C32.3333 32.488 33.4044 35.074 35.3111 36.9806C37.2177 38.8872 39.8036 39.9583 42.5 39.9583Z" fill="white"/>
<path d="M57.75 65.375C58.4241 65.375 59.0706 65.1072 59.5472 64.6305C60.0239 64.1539 60.2916 63.5074 60.2916 62.8333C60.2916 58.1146 58.4172 53.5893 55.0806 50.2527C51.744 46.9161 47.2186 45.0416 42.5 45.0416C37.7813 45.0416 33.256 46.9161 29.9194 50.2527C26.5828 53.5893 24.7083 58.1146 24.7083 62.8333C24.7083 63.5074 24.9761 64.1539 25.4528 64.6305C25.9294 65.1072 26.5759 65.375 27.25 65.375H57.75Z" fill="white"/>
</svg>
