<svg width="146" height="146" viewBox="0 0 146 146" fill="none" xmlns="http://www.w3.org/2000/svg">
<path d="M0 0H146V146H0V0Z" fill="black" fill-opacity="0.4"/>
<path d="M95.1666 57.1667H85.6666V52.4167C85.6666 50.3171 84.8326 48.3034 83.3479 46.8188C81.8632 45.3341 79.8496 44.5 77.75 44.5H68.25C66.1503 44.5 64.1367 45.3341 62.652 46.8188C61.1674 48.3034 60.3333 50.3171 60.3333 52.4167V57.1667H50.8333C48.3138 57.1667 45.8974 58.1676 44.1158 59.9492C42.3342 61.7308 41.3333 64.1471 41.3333 66.6667V92C41.3333 94.5196 42.3342 96.9359 44.1158 98.7175C45.8974 100.499 48.3138 101.5 50.8333 101.5H95.1666C97.6862 101.5 100.103 100.499 101.884 98.7175C103.666 96.9359 104.667 94.5196 104.667 92V66.6667C104.667 64.1471 103.666 61.7308 101.884 59.9492C100.103 58.1676 97.6862 57.1667 95.1666 57.1667ZM66.6666 52.4167C66.6666 51.9968 66.8335 51.594 67.1304 51.2971C67.4273 51.0002 67.8301 50.8333 68.25 50.8333H77.75C78.1699 50.8333 78.5726 51.0002 78.8696 51.2971C79.1665 51.594 79.3333 51.9968 79.3333 52.4167V57.1667H66.6666V52.4167ZM98.3333 92C98.3333 92.8399 97.9997 93.6453 97.4058 94.2392C96.812 94.8331 96.0065 95.1667 95.1666 95.1667H50.8333C49.9935 95.1667 49.188 94.8331 48.5941 94.2392C48.0003 93.6453 47.6666 92.8399 47.6666 92V66.6667C47.6666 65.8268 48.0003 65.0214 48.5941 64.4275C49.188 63.8336 49.9935 63.5 50.8333 63.5H95.1666C96.0065 63.5 96.812 63.8336 97.4058 64.4275C97.9997 65.0214 98.3333 65.8268 98.3333 66.6667V92Z" fill="#F5F5F5"/>
<path d="M73.0001 68.2501C70.808 68.2501 68.6651 68.9001 66.8425 70.1179C65.0198 71.3358 63.5993 73.0668 62.7604 75.092C61.9215 77.1172 61.702 79.3457 62.1297 81.4956C62.5573 83.6456 63.6129 85.6205 65.163 87.1705C66.713 88.7205 68.6878 89.7761 70.8378 90.2038C72.9878 90.6314 75.2162 90.4119 77.2415 89.5731C79.2667 88.7342 80.9977 87.3136 82.2155 85.491C83.4334 83.6683 84.0834 81.5255 84.0834 79.3334C84.0834 76.3939 82.9157 73.5748 80.8372 71.4963C78.7586 69.4178 75.9395 68.2501 73.0001 68.2501V68.2501ZM73.0001 84.0834C72.0606 84.0834 71.1422 83.8048 70.3611 83.2829C69.58 82.7609 68.9711 82.0191 68.6116 81.1511C68.2521 80.2832 68.158 79.3281 68.3413 78.4067C68.5246 77.4853 68.977 76.6389 69.6413 75.9746C70.3056 75.3103 71.152 74.8579 72.0734 74.6747C72.9948 74.4914 73.9499 74.5854 74.8178 74.945C75.6858 75.3045 76.4276 75.9133 76.9495 76.6944C77.4715 77.4756 77.7501 78.3939 77.7501 79.3334C77.7501 80.5932 77.2496 81.8014 76.3588 82.6922C75.468 83.5829 74.2598 84.0834 73.0001 84.0834V84.0834Z" fill="#F5F5F5"/>
</svg>
